<svg width="100%" height="100%" viewBox="0 0 16 16" fill="current" xmlns="http://www.w3.org/2000/svg">
<path fill-rule="evenodd" clip-rule="evenodd" d="M0 8C0 7.44772 0.447715 7 1 7H15C15.5523 7 16 7.44772 16 8C16 8.55228 15.5523 9 15 9H1C0.447715 9 0 8.55228 0 8Z" fill="current"/>
<path fill-rule="evenodd" clip-rule="evenodd" d="M7.29289 0.292893C7.68342 -0.0976311 8.31658 -0.0976311 8.70711 0.292893L15.7071 7.29289C16.0976 7.68342 16.0976 8.31658 15.7071 8.70711L8.70711 15.7071C8.31658 16.0976 7.68342 16.0976 7.29289 15.7071C6.90237 15.3166 6.90237 14.6834 7.29289 14.2929L13.5858 8L7.29289 1.70711C6.90237 1.31658 6.90237 0.683417 7.29289 0.292893Z" fill="current"/>
</svg>
