<svg width="100%" height="100%" viewBox="0 0 273 1" fill="current" xmlns="http://www.w3.org/2000/svg">
<path fill-rule="evenodd" clip-rule="evenodd" d="M2.00735 1H0V0H2.00735V1ZM10.0368 1H6.02206V0H10.0368V1ZM18.0662 1H14.0515V0H18.0662V1ZM26.0956 1H22.0809V0H26.0956V1ZM34.125 1H30.1103V0H34.125V1ZM42.1544 1H38.1397V0H42.1544V1ZM50.1838 1H46.1691V0H50.1838V1ZM58.2132 1H54.1985V0H58.2132V1ZM66.2426 1H62.2279V0H66.2426V1ZM74.2721 1H70.2574V0H74.2721V1ZM82.3015 1H78.2868V0H82.3015V1ZM90.3309 1H86.3162V0H90.3309V1ZM98.3603 1H94.3456V0H98.3603V1ZM106.39 1H102.375V0H106.39V1ZM114.419 1H110.404V0H114.419V1ZM122.449 1H118.434V0H122.449V1ZM130.478 1H126.463V0H130.478V1ZM138.507 1H134.493V0H138.507V1ZM146.537 1H142.522V0H146.537V1ZM154.566 1H150.552V0H154.566V1ZM162.596 1H158.581V0H162.596V1ZM170.625 1H166.61V0H170.625V1ZM178.655 1H174.64V0H178.655V1ZM186.684 1H182.669V0H186.684V1ZM194.713 1H190.699V0H194.713V1ZM202.743 1H198.728V0H202.743V1ZM210.772 1H206.757V0H210.772V1ZM218.802 1H214.787V0H218.802V1ZM226.831 1H222.816V0H226.831V1ZM234.86 1H230.846V0H234.86V1ZM242.89 1H238.875V0H242.89V1ZM250.919 1H246.905V0H250.919V1ZM258.949 1H254.934V0H258.949V1ZM266.978 1H262.963V0H266.978V1ZM273 1H270.993V0H273V1Z" fill="current"/>
</svg>
