<svg width="100%" height="100%" viewBox="0 0 24 18" fill="current" xmlns="http://www.w3.org/2000/svg">
<path d="M10.801 14.7749C11.176 14.7749 11.5135 15.0749 11.5135 15.4874C11.5135 15.8624 11.2135 16.1999 10.801 16.1999C10.426 16.1999 10.0885 15.8999 10.0885 15.4874C10.0885 15.0749 10.426 14.7749 10.801 14.7749ZM21.826 10.4249C21.451 10.4249 21.1135 10.1249 21.1135 9.71244C21.1135 9.33744 21.4135 8.99994 21.826 8.99994C22.201 8.99994 22.5385 9.29994 22.5385 9.71244C22.5385 10.0874 22.201 10.4249 21.826 10.4249ZM21.826 7.53744C20.626 7.53744 19.651 8.51244 19.651 9.71244C19.651 9.93744 19.6885 10.1624 19.7635 10.3874L12.601 14.2124C12.1885 13.6124 11.5135 13.2749 10.801 13.2749C9.97603 13.2749 9.22603 13.7624 8.85103 14.4749L2.40103 11.0999C1.72603 10.7249 1.20103 9.63744 1.27603 8.58744C1.31353 8.06244 1.50103 7.64994 1.76353 7.49994C1.95103 7.38744 2.13853 7.42494 2.40103 7.53744L2.43853 7.57494C4.16353 8.47494 9.75103 11.3999 9.97603 11.5124C10.351 11.6624 10.5385 11.7374 11.176 11.4374L22.726 5.43744C22.9135 5.36244 23.101 5.21244 23.101 4.94994C23.101 4.61244 22.7635 4.46244 22.7635 4.46244C22.0885 4.16244 21.076 3.67494 20.101 3.22494C18.001 2.24994 15.601 1.12494 14.551 0.562442C13.651 0.0749418 12.901 0.487442 12.7885 0.562442L12.526 0.674942C7.76353 3.07494 1.46353 6.18744 1.08853 6.41244C0.451029 6.78744 0.0385291 7.57494 0.00102908 8.54994C-0.0739709 10.0874 0.713529 11.6999 1.83853 12.2624L8.66353 15.7874C8.81353 16.8374 9.75103 17.6624 10.801 17.6624C12.001 17.6624 12.9385 16.7249 12.976 15.5249L20.476 11.4749C20.851 11.7749 21.3385 11.9249 21.826 11.9249C23.026 11.9249 24.001 10.9499 24.001 9.74994C24.001 8.51244 23.026 7.53744 21.826 7.53744Z" fill="current"/>
</svg>
