<svg width="100%" height="100%" viewBox="0 0 16 16" fill="current" xmlns="http://www.w3.org/2000/svg">
<path d="M14.999 7H8.99902V1C8.99902 0.734784 8.89367 0.48043 8.70613 0.292893C8.51859 0.105357 8.26424 0 7.99902 0C7.73381 0 7.47945 0.105357 7.29192 0.292893C7.10438 0.48043 6.99902 0.734784 6.99902 1V7H0.999023C0.733807 7 0.479453 7.10536 0.291917 7.29289C0.10438 7.48043 -0.000976562 7.73478 -0.000976562 8C-0.000976562 8.26522 0.10438 8.51957 0.291917 8.70711C0.479453 8.89464 0.733807 9 0.999023 9H6.99902V15C6.99902 15.2652 7.10438 15.5196 7.29192 15.7071C7.47945 15.8946 7.73381 16 7.99902 16C8.26424 16 8.51859 15.8946 8.70613 15.7071C8.89367 15.5196 8.99902 15.2652 8.99902 15V9H14.999C15.2642 9 15.5186 8.89464 15.7061 8.70711C15.8937 8.51957 15.999 8.26522 15.999 8C15.999 7.73478 15.8937 7.48043 15.7061 7.29289C15.5186 7.10536 15.2642 7 14.999 7Z" fill="current"/>
</svg>
