<svg width="100%" height="100%" viewBox="0 0 21 20" fill="current" xmlns="http://www.w3.org/2000/svg">
<path d="M9.5 7H11.5C11.7652 7 12.0196 7.10536 12.2071 7.29289C12.3946 7.48043 12.5 7.73478 12.5 8C12.5 8.26522 12.6054 8.51957 12.7929 8.70711C12.9804 8.89464 13.2348 9 13.5 9C13.7652 9 14.0196 8.89464 14.2071 8.70711C14.3946 8.51957 14.5 8.26522 14.5 8C14.5 7.20435 14.1839 6.44129 13.6213 5.87868C13.0587 5.31607 12.2957 5 11.5 5H9.5C8.70436 5 7.94129 5.31607 7.37868 5.87868C6.81607 6.44129 6.5 7.20435 6.5 8V12C6.5 12.7956 6.81607 13.5587 7.37868 14.1213C7.94129 14.6839 8.70436 15 9.5 15H11.5C12.2957 15 13.0587 14.6839 13.6213 14.1213C14.1839 13.5587 14.5 12.7956 14.5 12C14.5 11.7348 14.3946 11.4804 14.2071 11.2929C14.0196 11.1054 13.7652 11 13.5 11C13.2348 11 12.9804 11.1054 12.7929 11.2929C12.6054 11.4804 12.5 11.7348 12.5 12C12.5 12.2652 12.3946 12.5196 12.2071 12.7071C12.0196 12.8946 11.7652 13 11.5 13H9.5C9.23479 13 8.98043 12.8946 8.7929 12.7071C8.60536 12.5196 8.5 12.2652 8.5 12V8C8.5 7.73478 8.60536 7.48043 8.7929 7.29289C8.98043 7.10536 9.23479 7 9.5 7ZM10.5 0C8.52219 0 6.58879 0.58649 4.9443 1.6853C3.29981 2.78412 2.01809 4.3459 1.26121 6.17317C0.504333 8.00043 0.306299 10.0111 0.692152 11.9509C1.078 13.8907 2.03041 15.6725 3.42894 17.0711C4.82746 18.4696 6.60929 19.422 8.5491 19.8079C10.4889 20.1937 12.4996 19.9957 14.3268 19.2388C16.1541 18.4819 17.7159 17.2002 18.8147 15.5557C19.9135 13.9112 20.5 11.9778 20.5 10C20.5 8.68678 20.2413 7.38642 19.7388 6.17317C19.2363 4.95991 18.4997 3.85752 17.5711 2.92893C16.6425 2.00035 15.5401 1.26375 14.3268 0.761205C13.1136 0.258658 11.8132 0 10.5 0ZM10.5 18C8.91775 18 7.37104 17.5308 6.05544 16.6518C4.73985 15.7727 3.71447 14.5233 3.10897 13.0615C2.50347 11.5997 2.34504 9.99113 2.65372 8.43928C2.9624 6.88743 3.72433 5.46197 4.84315 4.34315C5.96197 3.22433 7.38743 2.4624 8.93928 2.15372C10.4911 1.84504 12.0997 2.00346 13.5615 2.60896C15.0233 3.21447 16.2727 4.23984 17.1518 5.55544C18.0308 6.87103 18.5 8.41775 18.5 10C18.5 12.1217 17.6572 14.1566 16.1569 15.6569C14.6566 17.1571 12.6217 18 10.5 18Z" fill="current"/>
</svg>
