<svg width="100%" height="100%" viewBox="0 0 20 14" fill="current" xmlns="http://www.w3.org/2000/svg">
<path d="M8.10357 1.07211C7.94786 0.66219 7.79071 0.248893 7.78786 0.243481C7.71286 0.0845207 7.53929 -0.0155909 7.35643 0.00199622C7.24071 0.0107898 4.50286 0.234011 2.74857 1.56996C1.83143 2.3722 0 7.06255 0 11.1177C0 11.1894 0.0192857 11.2591 0.0571429 11.3213C1.32214 13.425 4.77071 13.9756 5.55643 13.9993C5.56143 14 5.56571 14 5.57 14C5.70857 14 5.83857 13.9371 5.92143 13.8309L6.77143 12.7405C5.36714 12.5382 5.11357 12.2744 5.05429 12.2332C4.73714 12.012 4.50286 11.7022 4.78714 11.3112C5.00571 11.0075 5.46429 10.9074 5.81571 11.0785C6.17571 11.2375 7.13929 11.7488 10 11.7353C12.8407 11.7272 14.0879 11.1637 14.1057 11.1516C14.5829 10.948 14.955 11.0318 15.1871 11.3335C15.4636 11.7441 15.2664 12.0221 14.9507 12.2426C14.8914 12.2839 14.7479 12.3996 13.2393 12.7378L14.0786 13.8302C14.1607 13.9371 14.2914 13.9993 14.43 13.9993C14.435 13.9993 14.4393 13.9993 14.4436 13.9986C15.23 13.975 18.6786 13.4244 19.9429 11.3207C19.9807 11.2584 20 11.1888 20 11.1171C20 7.06255 18.1686 2.3722 17.2286 1.55237C15.4971 0.234688 12.7593 0.0114662 12.6436 0.00199622C12.4607 -0.0128852 12.2871 0.0851971 12.2121 0.243481C12.2093 0.248893 12.0564 0.668954 11.9086 1.07413C11.9086 1.07413 10.7436 0.912469 10 0.912469C9.25643 0.912469 8.10357 1.07211 8.10357 1.07211ZM7.14286 9.70603C6.35357 9.70603 5.71429 8.80436 5.71429 7.69096C5.71429 6.57755 6.35357 5.67588 7.14286 5.67588C7.935 5.56426 8.55429 6.57755 8.57143 7.69096C8.57143 8.80436 7.93214 9.70603 7.14286 9.70603ZM12.8571 9.70603C12.0679 9.70603 11.4286 8.79827 11.4286 7.67878C11.4286 6.55929 12.0679 5.65152 12.8571 5.65152C13.6464 5.65152 14.2857 6.55929 14.2857 7.67878C14.2857 8.79827 13.6464 9.70603 12.8571 9.70603Z" fill="current"/>
</svg>
