<svg width="100%" height="100%" viewBox="0 0 32 32" fill="current" xmlns="http://www.w3.org/2000/svg">
<path d="M13.9334 4.06658L8.9467 10.2799C7.81336 11.6932 8.21336 13.5066 9.8267 14.3066L14.8 16.7999C15.4534 17.1199 16.52 17.1199 17.1734 16.7999L22.1467 14.3066C23.76 13.4932 24.16 11.6799 23.0267 10.2799L18.0534 4.06658C16.9334 2.63992 15.0667 2.63992 13.9334 4.06658Z" stroke="current" stroke-width="1.5" stroke-miterlimit="10" stroke-linecap="round" stroke-linejoin="round"/>
<path d="M16 3.06665V10.08" stroke="current" stroke-width="1.5" stroke-miterlimit="10" stroke-linecap="round" stroke-linejoin="round"/>
<path d="M10.4001 14.2798L16.0001 10.0798L21.6001 14.2798" stroke="current" stroke-width="1.5" stroke-miterlimit="10" stroke-linecap="round" stroke-linejoin="round"/>
<path d="M11.6933 19.24L13.84 20.2C15.2133 20.8134 16.7867 20.8134 18.1733 20.2L20.32 19.24C22.24 18.3867 24.0133 20.7067 22.68 22.3334L18.0667 27.9734C16.9333 29.36 15.08 29.36 13.9333 27.9734L9.33332 22.3334C7.98665 20.7067 9.75999 18.3867 11.6933 19.24Z" stroke="current" stroke-width="1.5" stroke-miterlimit="10" stroke-linecap="round" stroke-linejoin="round"/>
</svg>
