<svg width="100%" height="100%" viewBox="0 0 20 20" fill="current" xmlns="http://www.w3.org/2000/svg">
<path d="M17.7645 0.833319H2.23617C2.06162 0.830895 1.8883 0.862879 1.72611 0.927446C1.56392 0.992013 1.41603 1.0879 1.2909 1.20962C1.16577 1.33135 1.06585 1.47653 0.996831 1.63688C0.927816 1.79723 0.891063 1.9696 0.888672 2.14415V17.8558C0.891063 18.0304 0.927816 18.2027 0.996831 18.3631C1.06585 18.5234 1.16577 18.6686 1.2909 18.7903C1.41603 18.9121 1.56392 19.008 1.72611 19.0725C1.8883 19.1371 2.06162 19.1691 2.23617 19.1667H17.7645C17.9391 19.1691 18.1124 19.1371 18.2746 19.0725C18.4368 19.008 18.5846 18.9121 18.7098 18.7903C18.8349 18.6686 18.9348 18.5234 19.0038 18.3631C19.0729 18.2027 19.1096 18.0304 19.112 17.8558V2.14415C19.1096 1.9696 19.0729 1.79723 19.0038 1.63688C18.9348 1.47653 18.8349 1.33135 18.7098 1.20962C18.5846 1.0879 18.4368 0.992013 18.2746 0.927446C18.1124 0.862879 17.9391 0.830895 17.7645 0.833319ZM6.41617 16.1783H3.66617V7.92832H6.41617V16.1783ZM5.04117 6.77332C4.66191 6.77332 4.29819 6.62266 4.03001 6.35448C3.76183 6.08631 3.61117 5.72258 3.61117 5.34332C3.61117 4.96406 3.76183 4.60033 4.03001 4.33216C4.29819 4.06398 4.66191 3.91332 5.04117 3.91332C5.24256 3.89048 5.4465 3.91044 5.63964 3.97188C5.83278 4.03332 6.01077 4.13487 6.16194 4.26987C6.31311 4.40487 6.43407 4.57027 6.51689 4.75526C6.5997 4.94025 6.64251 5.14064 6.64251 5.34332C6.64251 5.546 6.5997 5.74639 6.51689 5.93138C6.43407 6.11636 6.31311 6.28177 6.16194 6.41677C6.01077 6.55177 5.83278 6.65332 5.63964 6.71476C5.4465 6.7762 5.24256 6.79616 5.04117 6.77332ZM16.3345 16.1783H13.5845V11.7508C13.5845 10.6417 13.1903 9.91749 12.1912 9.91749C11.8819 9.91975 11.5808 10.0167 11.3284 10.1954C11.076 10.374 10.8844 10.6258 10.7795 10.9167C10.7078 11.1321 10.6767 11.359 10.6878 11.5858V16.1692H7.93784C7.93784 16.1692 7.93784 8.67082 7.93784 7.91915H10.6878V9.08332C10.9377 8.64983 11.301 8.29271 11.7387 8.05042C12.1765 7.80813 12.672 7.68985 13.172 7.70832C15.0053 7.70832 16.3345 8.89082 16.3345 11.43V16.1783Z" fill="current"/>
</svg>
