<svg width="100%" height="100%" viewBox="0 0 40 36" fill="current" xmlns="http://www.w3.org/2000/svg">
<path fill-rule="evenodd" clip-rule="evenodd" d="M9.7318 0.971266C3.69331 11.4718 -0.0312164 18.0333 0.000197155 18.1155C0.0212873 18.1706 2.26659 22.1047 4.98982 26.8578L9.94112 35.5L19.9775 35.4839L30.0139 35.4678L35.0068 26.7866C37.7529 22.0119 39.9998 18.0827 40 18.0551C40.0003 18.0274 37.7561 14.0851 35.0131 9.29436L30.0258 0.58395L22.7105 0.583887C18.6871 0.583823 14.1819 0.564934 12.699 0.541912L10.0028 0.5L9.7318 0.971266ZM28.8039 2.34156L29.0391 2.38061L33.2531 9.74063C35.5708 13.7886 37.467 17.1192 37.467 17.1419C37.467 17.1957 28.3527 17.1951 23.9072 17.141L20.449 17.099L16.2279 9.73802C13.9064 5.68952 12.0069 2.36001 12.0069 2.33908C12.0069 2.28878 28.5004 2.29119 28.8039 2.34156ZM14.7034 10.6325C16.9993 14.6377 18.8779 17.9718 18.878 18.0418C18.8781 18.2043 10.4705 32.8376 10.4112 32.7777C10.3233 32.6889 1.98223 18.1037 1.984 18.0418C1.98495 18.0068 3.37379 15.5598 5.07019 12.6041C6.76658 9.64835 8.66881 6.33365 9.29733 5.23816C9.92586 4.14261 10.4601 3.26972 10.4846 3.2984C10.509 3.32702 12.4075 6.62741 14.7034 10.6325ZM14.9019 4.22497C14.9684 4.33869 16.4725 6.92156 18.2445 9.96475C20.0165 13.008 21.4726 15.5069 21.4802 15.5179C21.4879 15.5289 23.9749 15.5173 27.0069 15.4921L32.5196 15.4463L33.0329 14.5615C33.3489 14.0171 33.5325 13.6357 33.5106 13.5698C33.4909 13.5109 32.4849 11.7457 31.2749 9.64721L29.075 5.83179L27.5326 4.925L25.9902 4.01828H20.3856H14.781L14.9019 4.22497ZM26.8871 6.62894C27.545 7.01543 28.1104 7.36599 28.1435 7.40802C28.1767 7.45 28.8098 8.67154 29.5503 10.1225L30.8967 12.7606L30.6827 13.1593L30.4687 13.5579L26.4786 13.5561L22.4886 13.5543L20.3194 9.78127C19.1264 7.70605 18.1502 5.98971 18.1502 5.9672C18.1502 5.94468 19.8469 5.92624 21.9206 5.92624H25.691L26.8871 6.62894ZM7.16185 12.3231C5.38534 15.4188 3.92258 17.9784 3.91124 18.011C3.89997 18.0436 5.1244 20.2175 6.63225 22.8418L9.37384 27.6134H10.4303H11.4867L13.7102 23.7447L15.9336 19.876V18.0418V16.2075L13.1989 11.4485C11.6949 8.83098 10.448 6.69057 10.4281 6.69197C10.4081 6.69337 8.93836 9.22739 7.16185 12.3231ZM12.1294 13.4286L13.7802 16.32V18.0902V19.8604L12.4372 22.1788L11.0942 24.4971H10.4192H9.74422L7.89418 21.2835C6.87666 19.5161 6.05338 18.0453 6.06465 18.015C6.15845 17.7634 10.402 10.461 10.4352 10.494C10.4591 10.5177 11.2215 11.8383 12.1294 13.4286ZM37.4414 19.0027C37.42 19.059 35.5145 22.3921 33.2071 26.4097L29.012 33.7143L20.5094 33.7166C15.833 33.7178 12.0069 33.7079 12.0069 33.6946C12.0069 33.6568 20.3712 19.0695 20.4443 18.9799C20.4956 18.917 22.283 18.9004 28.9948 18.9004C36.7676 18.9004 37.4773 18.909 37.4414 19.0027ZM18.1891 26.3054C16.3912 29.4336 14.9202 32.0094 14.9202 32.0292C14.9202 32.0491 17.3896 32.0653 20.4078 32.0653H25.8953L27.459 31.1617L29.0227 30.2581L31.234 26.4113C32.4502 24.2955 33.4543 22.5286 33.4652 22.4848C33.4761 22.441 33.2523 22.0029 32.9679 21.5113L32.4507 20.6175H26.9544H21.458L18.1891 26.3054ZM30.192 23.1754L30.5548 23.7935L29.2224 26.1009L27.89 28.4084L26.3708 29.2829L24.8515 30.1573H21.5258C18.4011 30.1573 18.2026 30.1507 18.242 30.0475C18.2651 29.9871 19.242 28.2697 20.4128 26.2311L22.5417 22.5245L26.1855 22.5409L29.8292 22.5573L30.192 23.1754Z" fill="current"/>
</svg>
