<svg width="100%" height="100%" viewBox="0 0 20 18" fill="current" xmlns="http://www.w3.org/2000/svg">
<path d="M20 2.80003C19.2483 3.12612 18.4534 3.34169 17.64 3.44003C18.4982 2.92735 19.1413 2.12081 19.45 1.17003C18.6436 1.65009 17.7608 1.98832 16.84 2.17003C16.2245 1.5026 15.405 1.05832 14.5098 0.906878C13.6147 0.755433 12.6945 0.905385 11.8938 1.33322C11.093 1.76105 10.4569 2.44256 10.0852 3.27086C9.71355 4.09917 9.62729 5.02742 9.84 5.91003C8.20943 5.82755 6.61444 5.40298 5.15865 4.66389C3.70287 3.9248 2.41885 2.88772 1.39 1.62003C1.02914 2.25019 0.839519 2.96385 0.84 3.69003C0.83872 4.36441 1.00422 5.02864 1.32176 5.62359C1.63929 6.21854 2.09902 6.72574 2.66 7.10003C2.00798 7.08229 1.36989 6.90733 0.8 6.59003V6.64003C0.804887 7.58492 1.13599 8.49912 1.73731 9.22799C2.33864 9.95687 3.17326 10.4557 4.1 10.64C3.74326 10.7486 3.37287 10.8058 3 10.81C2.74189 10.807 2.48442 10.7836 2.23 10.74C2.49391 11.5528 3.00462 12.2632 3.69107 12.7722C4.37753 13.2812 5.20558 13.5636 6.06 13.58C4.6172 14.7153 2.83588 15.3349 1 15.34C0.665735 15.3411 0.331736 15.3211 0 15.28C1.87443 16.4903 4.05881 17.1327 6.29 17.13C7.82969 17.146 9.35714 16.855 10.7831 16.2741C12.2091 15.6932 13.505 14.8339 14.5952 13.7465C15.6854 12.6591 16.548 11.3654 17.1326 9.94093C17.7172 8.51645 18.012 6.98975 18 5.45003C18 5.28003 18 5.10003 18 4.92003C18.7847 4.33484 19.4615 3.61745 20 2.80003Z" fill="current"/>
</svg>
